<?xml version="1.0" standalone="no"?>
<!DOCTYPE svg PUBLIC "-//W3C//DTD SVG 1.1//EN" "http://www.w3.org/Graphics/SVG/1.1/DTD/svg11.dtd">
<svg version="1.1" xmlns="http://www.w3.org/2000/svg" viewBox="0 0 1878.333333333333 889.1666666666665" width="1878.333333333333" height="889.1666666666665"><!-- svg-source:excalidraw --><metadata></metadata><defs><style class="style-fonts">@font-face { font-family: Excalifont; src: url("/fonts/playpen-sans-v13-latin-500.woff2"); } @font-face {  font-family: "Comic Shanns"; src: url("/fonts/SVBasicManual.woff2"); }</style></defs><rect x="0" y="0" width="1878.333333333333" height="889.1666666666665" fill="#ffffff"></rect><g stroke-linecap="round" transform="translate(460.66666666666663 222.5) rotate(0 152.5 282.5)"><path d="M32 0 C84.19 1.05, 146.09 2.62, 273 0 C297.39 0.68, 306.63 5.95, 305 32 C299.97 192.47, 300.88 351.79, 305 533 C306.6 556.25, 294.5 568.43, 273 565 C207.53 572.44, 140.12 569.18, 32 565 C13.36 567.54, -3.86 550.05, 0 533 C0.92 395.75, 0.73 261.87, 0 32 C-3.74 15.48, 9.67 -5.27, 32 0" stroke="none" stroke-width="0" fill="#ffffff"></path><path d="M32 0 C87.05 3.49, 143.39 -0.54, 273 0 M32 0 C115.37 -2.78, 201.98 -1.04, 273 0 M273 0 C296.76 0.01, 307.68 12.27, 305 32 M273 0 C293.22 -2.85, 309.17 13.58, 305 32 M305 32 C303.44 148.09, 301.41 262.87, 305 533 M305 32 C302.11 199.78, 302 367.19, 305 533 M305 533 C305.29 557.33, 294.43 568.06, 273 565 M305 533 C309.1 550.83, 293.03 566.83, 273 565 M273 565 C218.92 568.35, 157.06 564.81, 32 565 M273 565 C220.7 563.07, 170.45 561.1, 32 565 M32 565 C12.74 562.47, -3.98 555.71, 0 533 M32 565 C12.99 569.39, -3.25 555.48, 0 533 M0 533 C2.96 376.74, 1.35 221.46, 0 32 M0 533 C2.31 415.25, 3.17 298.47, 0 32 M0 32 C-0.89 13.51, 9.88 3.18, 32 0 M0 32 C-2.02 6.5, 14.23 3.44, 32 0" stroke="#1e1e1e" stroke-width="4" fill="none"></path></g><g stroke-linecap="round" transform="translate(460.66666666666663 375.83333333333314) rotate(0 152.4999999999999 33.33333333333337)"><path d="M16.67 0 C85.45 2.09, 158.08 0.91, 288.33 0 C300.51 -2.05, 307.14 3.7, 305 16.67 C308.49 28.84, 303 38.64, 305 50 C306.29 65.06, 296.3 71.67, 288.33 66.67 C200.14 66.16, 111.35 64.41, 16.67 66.67 C2.06 70.73, 3.71 59.96, 0 50 C-1.3 37.34, -4.32 23, 0 16.67 C-4.09 2.96, 1.54 0.78, 16.67 0" stroke="none" stroke-width="0" fill="#ffffff"></path><path d="M16.67 0 C123.55 -4.92, 229.44 -4.18, 288.33 0 M16.67 0 C92.3 0.02, 167.04 0.61, 288.33 0 M288.33 0 C297.15 -2.69, 302.34 8.56, 305 16.67 M288.33 0 C295.91 -4.36, 300.59 8.87, 305 16.67 M305 16.67 C304.97 31.1, 308.93 38.11, 305 50 M305 16.67 C305.1 27.94, 302.7 38.9, 305 50 M305 50 C308.17 59.01, 299.82 65.4, 288.33 66.67 M305 50 C306.85 61.47, 297.26 65.8, 288.33 66.67 M288.33 66.67 C190.52 70.09, 84.6 66.25, 16.67 66.67 M288.33 66.67 C233.82 67.24, 179.92 66.3, 16.67 66.67 M16.67 66.67 C2.15 65.85, 0.12 64.21, 0 50 M16.67 66.67 C4.51 66.33, -3.27 58.11, 0 50 M0 50 C2.85 40.76, 2.61 32.81, 0 16.67 M0 50 C1.32 38.34, 0.36 22.81, 0 16.67 M0 16.67 C-1.33 4.99, 3.77 -1.9, 16.67 0 M0 16.67 C-2.77 6.13, 2.96 -0.08, 16.67 0" stroke="#1e1e1e" stroke-width="4" fill="none"></path></g><g transform="translate(488.3726221720376 386.6666666666665) rotate(0 124.7940444946289 22.5)"><text x="124.7940444946289" y="31.716" font-family="Excalifont, Xiaolai, sans-serif, Segoe UI Emoji" font-size="36px" fill="#1e1e1e" text-anchor="middle" style="white-space: pre;" direction="ltr" dominant-baseline="alphabetic">Function Code</text></g><g stroke-linecap="round" transform="translate(458.1666666666664 536.833333333333) rotate(0 152.4999999999999 33.33333333333337)"><path d="M16.67 0 C101.82 -6.54, 190.99 -5.07, 288.33 0 C301.26 -1.31, 305.81 10.16, 305 16.67 C307.28 25.55, 301.03 44.22, 305 50 C304.26 61.55, 304.36 70.38, 288.33 66.67 C181.18 66.18, 70.03 68.75, 16.67 66.67 C4.48 63.21, 3.6 66.21, 0 50 C-4.36 37.68, -1.13 34.47, 0 16.67 C5.55 6.16, 3.42 -1.87, 16.67 0" stroke="none" stroke-width="0" fill="#ffffff"></path><path d="M16.67 0 C120.42 4.72, 219.01 5.12, 288.33 0 M16.67 0 C110.28 -0.42, 203.43 -0.47, 288.33 0 M288.33 0 C297.59 -2.87, 305.56 9.34, 305 16.67 M288.33 0 C300.33 -0.5, 304.98 9.03, 305 16.67 M305 16.67 C306.85 23.24, 306.76 39.34, 305 50 M305 16.67 C305.99 24.89, 304.12 32.15, 305 50 M305 50 C307.7 63.62, 299.42 62.93, 288.33 66.67 M305 50 C306.75 65.51, 303.54 66.16, 288.33 66.67 M288.33 66.67 C192.62 69.46, 98.01 73.1, 16.67 66.67 M288.33 66.67 C209.03 66.6, 129.82 65.35, 16.67 66.67 M16.67 66.67 C4.4 70.5, -2.84 59.08, 0 50 M16.67 66.67 C6.79 67.49, -1.24 64.63, 0 50 M0 50 C-0.07 43.48, -2.21 34.09, 0 16.67 M0 50 C1.73 41.9, 1.32 35.37, 0 16.67 M0 16.67 C0.43 8.55, 8.64 2.01, 16.67 0 M0 16.67 C4.44 5.7, 6 -2.41, 16.67 0" stroke="#1e1e1e" stroke-width="4" fill="none"></path></g><g stroke-linecap="round"><g transform="translate(350.66666666666663 32.49999999999977) rotate(0 0 381.6666666666668)"><path d="M2.38 1.67 C2.84 129.54, 2.96 638.09, 2.37 764.65 M0.23 0.11 C0.57 127.37, 2.05 633.22, 1.43 760.36" stroke="#1e1e1e" stroke-width="4" fill="none"></path></g><g transform="translate(350.66666666666663 32.49999999999977) rotate(0 0 381.6666666666668)"><path d="M-5.92 738.56 C-3.95 742.7, -4.08 750.26, 0.84 758.67 M-7.98 735.93 C-5.11 743.5, -1.78 750.56, 2.07 759.47" stroke="#1e1e1e" stroke-width="4" fill="none"></path></g><g transform="translate(350.66666666666663 32.49999999999977) rotate(0 0 381.6666666666668)"><path d="M11.18 738.56 C8.27 742.85, 3.26 750.41, 0.84 758.67 M9.13 735.93 C6.86 743.6, 5.06 750.66, 2.07 759.47" stroke="#1e1e1e" stroke-width="4" fill="none"></path></g></g><mask></mask><g transform="translate(380.66666666666663 16.833333333333258) rotate(0 231.64208984375 22.5)"><text x="0" y="31.716" font-family="Excalifont, Xiaolai, sans-serif, Segoe UI Emoji" font-size="36px" fill="#1e1e1e" text-anchor="start" style="white-space: pre;" direction="ltr" dominant-baseline="alphabetic">Virtual Memory Addresses </text></g><g stroke-linecap="round"><g transform="translate(855.6666666666666 220.83333333333326) rotate(0 0 282.5)"><path d="M-2.09 -1.27 C-1.92 92.63, 1.81 468.7, 2.46 562.84 M1.97 4.21 C1.86 98.45, 1.72 471.68, 1.56 565.3" stroke="#1e1e1e" stroke-width="4" fill="none"></path></g><g transform="translate(855.6666666666666 220.83333333333326) rotate(0 0 282.5)"><path d="M5.74 23.91 C2.08 15.18, -0.45 6.9, -2.38 -0.04 M5.98 21.77 C3.85 17.14, 2.82 12.67, -1.96 -0.75" stroke="#1e1e1e" stroke-width="4" fill="none"></path></g><g transform="translate(855.6666666666666 220.83333333333326) rotate(0 0 282.5)"><path d="M-11.36 24.05 C-9.01 15.39, -5.54 7.07, -2.38 -0.04 M-11.12 21.91 C-9.48 17.35, -6.74 12.85, -1.96 -0.75" stroke="#1e1e1e" stroke-width="4" fill="none"></path></g><g transform="translate(855.6666666666666 220.83333333333326) rotate(0 0 282.5)"><path d="M-7.87 543.56 C-5.56 551.43, -2.03 559.64, 1.27 566.52 M-7.63 541.41 C-5.91 547.24, -3.12 553.11, 1.69 565.82" stroke="#1e1e1e" stroke-width="4" fill="none"></path></g><g transform="translate(855.6666666666666 220.83333333333326) rotate(0 0 282.5)"><path d="M9.23 543.57 C5.53 551.31, 3.05 559.52, 1.27 566.52 M9.47 541.43 C7.42 547.14, 6.44 553.02, 1.69 565.82" stroke="#1e1e1e" stroke-width="4" fill="none"></path></g></g><mask></mask><g transform="translate(455.66666666666634 834.1666666666665) rotate(0 178.07403564453128 22.5)"><text x="0" y="31.716" font-family="Excalifont, Xiaolai, sans-serif, Segoe UI Emoji" font-size="36px" fill="#1e1e1e" text-anchor="start" style="white-space: pre;" direction="ltr" dominant-baseline="alphabetic">Binary Text Section</text></g><g transform="translate(507.33333333333314 159.16666666666674) rotate(0 103.17604064941406 22.5)"><text x="0" y="31.716" font-family="Excalifont, Xiaolai, sans-serif, Segoe UI Emoji" font-size="36px" fill="#1e1e1e" text-anchor="start" style="white-space: pre;" direction="ltr" dominant-baseline="alphabetic">Loaded DLL</text></g><g stroke-linecap="round" transform="translate(459.83333333333314 540.8333333333333) rotate(0 152.4999999999999 8.333333333333371)"><path d="M4.17 0 C96.34 -3.79, 184.67 -5.89, 300.83 0 C298.12 4.14, 304.23 3.19, 305 4.17 C303.71 6.49, 303.03 7.79, 305 12.5 C306.31 17.39, 299.97 18.62, 300.83 16.67 C193.68 15.29, 96.04 14.84, 4.17 16.67 C5.74 17.28, 2.12 13.22, 0 12.5 C-1.21 9.06, 0.32 10.3, 0 4.17 C-3.25 6.2, -0.84 3.29, 4.17 0" stroke="none" stroke-width="0" fill="#ffc9c9"></path><path d="M4.17 0 C98.51 -1.79, 190.98 -1.67, 300.83 0 M4.17 0 C78.83 -1.66, 150.71 -1.36, 300.83 0 M300.83 0 C306.58 2.76, 301.36 -1.3, 305 4.17 M300.83 0 C306.11 1.58, 301.52 2.99, 305 4.17 M305 4.17 C305.9 6.72, 303.85 8.52, 305 12.5 M305 4.17 C305.91 7.12, 305.58 8.96, 305 12.5 M305 12.5 C302.63 16.25, 302.89 15.3, 300.83 16.67 M305 12.5 C302.75 17.04, 301.09 15.53, 300.83 16.67 M300.83 16.67 C185.47 10.32, 73.44 13.86, 4.17 16.67 M300.83 16.67 C190.75 12.01, 80.13 13.49, 4.17 16.67 M4.17 16.67 C4.71 14.52, -0.82 19.01, 0 12.5 M4.17 16.67 C-1.53 16.7, 2.54 10.83, 0 12.5 M0 12.5 C0.98 11.2, 0.84 10.06, 0 4.17 M0 12.5 C0.59 11.11, -0.14 8.2, 0 4.17 M0 4.17 C2.8 1.13, -1.07 0.91, 4.17 0 M0 4.17 C-2.05 0.87, 3.6 -2.11, 4.17 0" stroke="#1e1e1e" stroke-width="4" fill="none"></path></g><g stroke-linecap="round" transform="translate(995.8333333333331 223.33333333333348) rotate(0 152.5 282.5)"><path d="M32 0 C109.41 0.23, 188.84 -6, 273 0 C299.71 -0.07, 307.73 5.56, 305 32 C299.58 146.67, 300 265.86, 305 533 C301.54 549.28, 299.1 560.97, 273 565 C184.96 560.17, 99.55 563.96, 32 565 C10.87 561.67, 3.52 551.44, 0 533 C4.54 431.3, 2.2 329.12, 0 32 C-3.51 15.75, 11.83 -5.28, 32 0" stroke="none" stroke-width="0" fill="#ffffff"></path><path d="M32 0 C127.3 0.61, 217.26 -0.06, 273 0 M32 0 C123.62 -3.81, 216.64 -3.75, 273 0 M273 0 C293.05 -3.16, 305.79 7.04, 305 32 M273 0 C290.19 -0.99, 301.54 10.72, 305 32 M305 32 C306.22 181.36, 306.81 329.34, 305 533 M305 32 C307.14 225, 307.1 417.37, 305 533 M305 533 C304.18 555.93, 293.37 562.43, 273 565 M305 533 C303.53 558.24, 297.57 568.14, 273 565 M273 565 C211.62 565.23, 153.99 565.9, 32 565 M273 565 C202 567.01, 130.83 568.42, 32 565 M32 565 C14.64 561.33, -2.8 553.51, 0 533 M32 565 C10.4 566.93, 3.15 549.73, 0 533 M0 533 C4.06 340.77, 2.84 148.72, 0 32 M0 533 C0.47 407.41, -0.23 280.55, 0 32 M0 32 C-0.1 12.08, 11.66 1.05, 32 0 M0 32 C3.76 14.48, 7.99 2.26, 32 0" stroke="#1e1e1e" stroke-width="4" fill="none"></path></g><g transform="translate(1070.699315388997 460.8333333333335) rotate(0 77.63401794433594 45)"><text x="77.63401794433594" y="31.716" font-family="Excalifont, Xiaolai, sans-serif, Segoe UI Emoji" font-size="36px" fill="#1e1e1e" text-anchor="middle" style="white-space: pre;" direction="ltr" dominant-baseline="alphabetic">PE .text</text><text x="77.63401794433594" y="76.71600000000001" font-family="Excalifont, Xiaolai, sans-serif, Segoe UI Emoji" font-size="36px" fill="#1e1e1e" text-anchor="middle" style="white-space: pre;" direction="ltr" dominant-baseline="alphabetic">section</text></g><g stroke-linecap="round" transform="translate(999.1666666666664 127.5) rotate(0 152.4999999999999 33.33333333333337)"><path d="M16.67 0 C106.28 0.14, 195.39 1.84, 288.33 0 C304.54 2.34, 307.13 6.68, 305 16.67 C303.46 25.02, 302.6 32.64, 305 50 C303.39 64.01, 302.64 62, 288.33 66.67 C198.18 72.37, 111.37 69.94, 16.67 66.67 C5.14 66.96, -0.23 61.78, 0 50 C-3.86 42.24, -2 23.6, 0 16.67 C-0.64 7.53, 7.83 -4.07, 16.67 0" stroke="none" stroke-width="0" fill="#ffffff"></path><path d="M16.67 0 C107.1 0.36, 202.09 -5.42, 288.33 0 M16.67 0 C74.83 3.72, 132.32 1.93, 288.33 0 M288.33 0 C298.07 2.28, 304.69 2.64, 305 16.67 M288.33 0 C301.45 -3.03, 305.47 5.93, 305 16.67 M305 16.67 C307.39 23.71, 306.41 30.41, 305 50 M305 16.67 C303.84 26.45, 307.07 33.7, 305 50 M305 50 C304.55 63.35, 299.25 67.82, 288.33 66.67 M305 50 C306.36 59.49, 303.91 67.54, 288.33 66.67 M288.33 66.67 C226.25 63.57, 163.43 66.67, 16.67 66.67 M288.33 66.67 C225.55 68.26, 163.14 68.2, 16.67 66.67 M16.67 66.67 C9.29 65.64, 1.31 62.11, 0 50 M16.67 66.67 C7.28 67.18, -2.62 63.27, 0 50 M0 50 C2.15 39.92, -3.72 29, 0 16.67 M0 50 C0.88 36.31, -1.08 23.57, 0 16.67 M0 16.67 C-3.64 2.82, 4.23 -2.8, 16.67 0 M0 16.67 C-3.05 3.71, 9.68 -3.26, 16.67 0" stroke="#1e1e1e" stroke-width="4" fill="none"></path></g><g transform="translate(1060.8566385904944 138.33333333333348) rotate(0 90.81002807617193 22.5)"><text x="90.81002807617188" y="31.716" font-family="Excalifont, Xiaolai, sans-serif, Segoe UI Emoji" font-size="36px" fill="#1e1e1e" text-anchor="middle" style="white-space: pre;" direction="ltr" dominant-baseline="alphabetic">PE Header</text></g><g stroke-linecap="round"><g transform="translate(1438.4998225399268 17.617796535802427) rotate(0 -0.8405188719340231 384.95764334577717)"><path d="M-2.65 -0.04 C-3.07 128.34, -2.07 644.51, -1.52 772.58 M1.1 -2.53 C0.25 124.93, -3.5 640.16, -3.68 769.02" stroke="#1e1e1e" stroke-width="4" fill="none"></path></g><g transform="translate(1438.4998225399268 17.617796535802427) rotate(0 -0.8405188719340231 384.95764334577717)"><path d="M-12.14 745.6 C-7.2 755.07, -7.39 762.52, -4.48 770.9 M-12.62 745.05 C-10.03 751.53, -6.03 760.13, -4.08 768.8" stroke="#1e1e1e" stroke-width="4" fill="none"></path></g><g transform="translate(1438.4998225399268 17.617796535802427) rotate(0 -0.8405188719340231 384.95764334577717)"><path d="M4.96 745.68 C4.19 754.96, -1.7 762.38, -4.48 770.9 M4.48 745.13 C2 751.71, 0.94 760.29, -4.08 768.8" stroke="#1e1e1e" stroke-width="4" fill="none"></path></g></g><mask></mask><g transform="translate(1471.691243489583 10) rotate(0 103.42803192138672 22.5)"><text x="0" y="31.716" font-family="Excalifont, Xiaolai, sans-serif, Segoe UI Emoji" font-size="36px" fill="#1e1e1e" text-anchor="start" style="white-space: pre;" direction="ltr" dominant-baseline="alphabetic">File offsets</text></g><g transform="translate(1465 199.16666666666674) rotate(0 201.66666666666652 22.5)"><text x="0" y="31.716" font-family="Excalifont, Xiaolai, sans-serif, Segoe UI Emoji" font-size="36px" fill="#1e1e1e" text-anchor="start" style="white-space: pre;" direction="ltr" dominant-baseline="alphabetic">section.FileOffset</text></g><g transform="translate(10 200) rotate(0 201.66666666666654 22.5)"><text x="0" y="31.716" font-family="Excalifont, Xiaolai, sans-serif, Segoe UI Emoji" font-size="36px" fill="#1e1e1e" text-anchor="start" style="white-space: pre;" direction="ltr" dominant-baseline="alphabetic">vad.StartAddress</text></g></svg>