<?xml version="1.0" standalone="no"?>
<!DOCTYPE svg PUBLIC "-//W3C//DTD SVG 1.1//EN" "http://www.w3.org/Graphics/SVG/1.1/DTD/svg11.dtd">
<svg version="1.1" xmlns="http://www.w3.org/2000/svg" viewBox="0 0 1144 750" width="1144" height="750"><!-- svg-source:excalidraw --><metadata></metadata><defs><style class="style-fonts">@font-face { font-family: Excalifont; src: url("/fonts/playpen-sans-v13-latin-500.woff2"); } @font-face {  font-family: "Comic Shanns"; src: url("/fonts/SVBasicManual.woff2"); }</style></defs><g transform="translate(190 37.5) rotate(0 33.86614990234375 17.5)"><text x="0" y="24.668" font-family="Excalifont, Xiaolai, Segoe UI Emoji" font-size="28px" fill="#1e1e1e" text-anchor="start" style="white-space: pre;" direction="ltr" dominant-baseline="alphabetic">YAML</text></g><g stroke-linecap="round" transform="translate(130.0000000000001 81) rotate(0 441.99999999999994 313)"><path d="M32 0 C265.25 0.11, 499.27 2.78, 852 0 C874.86 -1.04, 886.22 8.61, 884 32 C881.21 143.83, 882.16 256.31, 884 594 C886.25 620.48, 876.2 626.54, 852 626 C687.79 620.61, 519.68 616.93, 32 626 C13.78 624.61, 1.94 619.3, 0 594 C-6.3 394.94, -4.39 198.46, 0 32 C-3.07 5.68, 13.69 3.42, 32 0" stroke="none" stroke-width="0" fill="#ffffff"></path><path d="M32 0 C201.81 -5, 370.66 -4.64, 852 0 M32 0 C327.7 -3.03, 624.1 -2.78, 852 0 M852 0 C870.96 3.45, 886.29 9.86, 884 32 M852 0 C869.74 -3.9, 887.33 12.61, 884 32 M884 32 C880.35 170.11, 879.25 308.45, 884 594 M884 32 C879.86 201.02, 879.93 370.64, 884 594 M884 594 C883.7 612.67, 872.99 628.28, 852 626 M884 594 C883.22 616.73, 869.86 627.01, 852 626 M852 626 C588.97 630.71, 328.64 629.77, 32 626 M852 626 C535.34 625.02, 218.13 625.21, 32 626 M32 626 C11.22 628.03, -2.51 616.62, 0 594 M32 626 C15.27 623.61, -0.2 611.65, 0 594 M0 594 C-0.53 418.71, 0.46 244.62, 0 32 M0 594 C-4.59 394.65, -5.07 195.32, 0 32 M0 32 C3.56 8.7, 13.36 -1.79, 32 0 M0 32 C-4.33 12.26, 12.99 4.47, 32 0" stroke="#868e96" stroke-width="1" fill="none"></path></g><g transform="translate(182 119) rotate(0 329.99957275390625 275)"><text x="0" y="17.5" font-family="Comic Shanns, Segoe UI Emoji" font-size="20px" fill="#1e1e1e" text-anchor="start" style="white-space: pre;" direction="ltr" dominant-baseline="alphabetic">name: Generic.Client.LastUser</text><text x="0" y="42.5" font-family="Comic Shanns, Segoe UI Emoji" font-size="20px" fill="#1e1e1e" text-anchor="start" style="white-space: pre;" direction="ltr" dominant-baseline="alphabetic"></text><text x="0" y="67.5" font-family="Comic Shanns, Segoe UI Emoji" font-size="20px" fill="#1e1e1e" text-anchor="start" style="white-space: pre;" direction="ltr" dominant-baseline="alphabetic">description: |</text><text x="0" y="92.5" font-family="Comic Shanns, Segoe UI Emoji" font-size="20px" fill="#1e1e1e" text-anchor="start" style="white-space: pre;" direction="ltr" dominant-baseline="alphabetic">  Queries to find the last logged on user</text><text x="0" y="117.5" font-family="Comic Shanns, Segoe UI Emoji" font-size="20px" fill="#1e1e1e" text-anchor="start" style="white-space: pre;" direction="ltr" dominant-baseline="alphabetic"></text><text x="0" y="142.5" font-family="Comic Shanns, Segoe UI Emoji" font-size="20px" fill="#1e1e1e" text-anchor="start" style="white-space: pre;" direction="ltr" dominant-baseline="alphabetic">type: CLIENT</text><text x="0" y="167.5" font-family="Comic Shanns, Segoe UI Emoji" font-size="20px" fill="#1e1e1e" text-anchor="start" style="white-space: pre;" direction="ltr" dominant-baseline="alphabetic"></text><text x="0" y="192.5" font-family="Comic Shanns, Segoe UI Emoji" font-size="20px" fill="#1e1e1e" text-anchor="start" style="white-space: pre;" direction="ltr" dominant-baseline="alphabetic">sources:</text><text x="0" y="217.5" font-family="Comic Shanns, Segoe UI Emoji" font-size="20px" fill="#1e1e1e" text-anchor="start" style="white-space: pre;" direction="ltr" dominant-baseline="alphabetic">  - precondition: SELECT * From info() where OS = 'windows'</text><text x="0" y="242.5" font-family="Comic Shanns, Segoe UI Emoji" font-size="20px" fill="#1e1e1e" text-anchor="start" style="white-space: pre;" direction="ltr" dominant-baseline="alphabetic">    query: |</text><text x="0" y="267.5" font-family="Comic Shanns, Segoe UI Emoji" font-size="20px" fill="#1e1e1e" text-anchor="start" style="white-space: pre;" direction="ltr" dominant-baseline="alphabetic">      SELECT Name AS LastUser, Mtime AS LastLogin</text><text x="0" y="292.5" font-family="Comic Shanns, Segoe UI Emoji" font-size="20px" fill="#1e1e1e" text-anchor="start" style="white-space: pre;" direction="ltr" dominant-baseline="alphabetic">      FROM Artifact.Windows.Sys.Users()</text><text x="0" y="317.5" font-family="Comic Shanns, Segoe UI Emoji" font-size="20px" fill="#1e1e1e" text-anchor="start" style="white-space: pre;" direction="ltr" dominant-baseline="alphabetic">      ORDER BY LastLogin DESC</text><text x="0" y="342.5" font-family="Comic Shanns, Segoe UI Emoji" font-size="20px" fill="#1e1e1e" text-anchor="start" style="white-space: pre;" direction="ltr" dominant-baseline="alphabetic">      LIMIT 1</text><text x="0" y="367.5" font-family="Comic Shanns, Segoe UI Emoji" font-size="20px" fill="#1e1e1e" text-anchor="start" style="white-space: pre;" direction="ltr" dominant-baseline="alphabetic">      </text><text x="0" y="392.5" font-family="Comic Shanns, Segoe UI Emoji" font-size="20px" fill="#1e1e1e" text-anchor="start" style="white-space: pre;" direction="ltr" dominant-baseline="alphabetic">  - precondition: SELECT * From info() where OS = 'linux'</text><text x="0" y="417.5" font-family="Comic Shanns, Segoe UI Emoji" font-size="20px" fill="#1e1e1e" text-anchor="start" style="white-space: pre;" direction="ltr" dominant-baseline="alphabetic">    query: |</text><text x="0" y="442.5" font-family="Comic Shanns, Segoe UI Emoji" font-size="20px" fill="#1e1e1e" text-anchor="start" style="white-space: pre;" direction="ltr" dominant-baseline="alphabetic">      SELECT login_User AS LastUser, login_time AS LastLogin</text><text x="0" y="467.5" font-family="Comic Shanns, Segoe UI Emoji" font-size="20px" fill="#1e1e1e" text-anchor="start" style="white-space: pre;" direction="ltr" dominant-baseline="alphabetic">      FROM Artifact.Linux.Sys.LastUserLogin()</text><text x="0" y="492.5" font-family="Comic Shanns, Segoe UI Emoji" font-size="20px" fill="#1e1e1e" text-anchor="start" style="white-space: pre;" direction="ltr" dominant-baseline="alphabetic">      ORDER BY LastLogin DESC</text><text x="0" y="517.5" font-family="Comic Shanns, Segoe UI Emoji" font-size="20px" fill="#1e1e1e" text-anchor="start" style="white-space: pre;" direction="ltr" dominant-baseline="alphabetic">      LIMIT 1</text><text x="0" y="542.5" font-family="Comic Shanns, Segoe UI Emoji" font-size="20px" fill="#1e1e1e" text-anchor="start" style="white-space: pre;" direction="ltr" dominant-baseline="alphabetic"></text></g><g stroke-linecap="round" transform="translate(236.5 541) rotate(0 311.5 53.5)"><path d="M0 0 C217.17 -2.22, 436.37 -1.95, 623 0 M0 0 C199.75 -1.35, 400.09 -2, 623 0 M623 0 C622.81 42.22, 622.4 80.37, 623 107 M623 0 C624.35 30.14, 622.92 58.81, 623 107 M623 107 C389.56 106.59, 155.86 106.4, 0 107 M623 107 C496.94 109.1, 370.9 109.14, 0 107 M0 107 C-0.43 68.64, 0.75 27.24, 0 0 M0 107 C1.51 82.89, 1.63 60.7, 0 0" stroke="#fa5252" stroke-width="2" fill="none"></path></g><g stroke-linecap="round" transform="translate(236.5 367.5) rotate(0 252.5 53.5)"><path d="M0 0 C182.39 -1.51, 365.08 -2.22, 505 0 M0 0 C128.21 1.42, 255.96 0.83, 505 0 M505 0 C505.63 23.95, 503.5 47.64, 505 107 M505 0 C505.94 30.89, 504.63 63.26, 505 107 M505 107 C344.91 106.51, 184.86 106.82, 0 107 M505 107 C318.16 107.79, 131.35 107.76, 0 107 M0 107 C-0.87 71.13, 0.66 36.53, 0 0 M0 107 C-0.03 85.26, 0.36 62.22, 0 0" stroke="#fa5252" stroke-width="2" fill="none"></path></g><g transform="translate(894 401) rotate(0 33.799957275390625 25)"><text x="0" y="17.619999999999997" font-family="Excalifont, Xiaolai, Segoe UI Emoji" font-size="20px" fill="#228be6" text-anchor="start" style="white-space: pre;" direction="ltr" dominant-baseline="alphabetic">VQL</text><text x="0" y="42.62" font-family="Excalifont, Xiaolai, Segoe UI Emoji" font-size="20px" fill="#228be6" text-anchor="start" style="white-space: pre;" direction="ltr" dominant-baseline="alphabetic">queries</text></g><g transform="translate(487 245) rotate(0 95.93990325927734 12.5)"><text x="0" y="17.619999999999997" font-family="Excalifont, Xiaolai, Segoe UI Emoji" font-size="20px" fill="#228be6" text-anchor="start" style="white-space: pre;" direction="ltr" dominant-baseline="alphabetic">The artifact's type</text></g><g stroke-linecap="round" transform="translate(156 232) rotate(0 94 23)"><path d="M11.5 0 C66.42 -1.87, 118.2 -0.6, 176.5 0 M11.5 0 C70.01 0.27, 127.13 0.37, 176.5 0 M176.5 0 C184.82 -1.42, 186.79 3.39, 188 11.5 M176.5 0 C184.69 0.6, 188.5 2.62, 188 11.5 M188 11.5 C187.62 19, 188.94 26.02, 188 34.5 M188 11.5 C187.92 20.07, 188.13 29.33, 188 34.5 M188 34.5 C186.61 42.38, 186.12 47.44, 176.5 46 M188 34.5 C187.52 40.86, 183.75 46.31, 176.5 46 M176.5 46 C111.54 43.63, 49.34 44.33, 11.5 46 M176.5 46 C110.86 44.93, 46.11 46.21, 11.5 46 M11.5 46 C4.13 45.86, 0.93 41.36, 0 34.5 M11.5 46 C2.85 44.04, -0.99 41.71, 0 34.5 M0 34.5 C-0.41 30.61, -1.14 23.2, 0 11.5 M0 34.5 C-0.01 25.66, -0.31 19.2, 0 11.5 M0 11.5 C-0.19 2.45, 5.41 -1.86, 11.5 0 M0 11.5 C0.36 5.88, 4.96 1.11, 11.5 0" stroke="#40c057" stroke-width="2" fill="none"></path></g><g transform="translate(158.17894744873047 403.5) rotate(0 26.642105102539062 17.5)"><text x="0" y="24.668" font-family="Excalifont, Xiaolai, Segoe UI Emoji" font-size="28px" fill="#fa5252" text-anchor="start" style="white-space: pre;" direction="ltr" dominant-baseline="alphabetic">VQL</text></g><g transform="translate(158.17894744873047 577) rotate(0 26.642105102539062 17.5)"><text x="0" y="24.668" font-family="Excalifont, Xiaolai, Segoe UI Emoji" font-size="28px" fill="#fa5252" text-anchor="start" style="white-space: pre;" direction="ltr" dominant-baseline="alphabetic">VQL</text></g><g stroke-linecap="round"><g transform="translate(862 424.274886556302) rotate(0 -80 -2.0983156220341925)"><path d="M0.65 -1.06 C-8.4 -1.58, -28.01 -2.47, -54.88 -2.8 C-81.75 -3.12, -143 -2.59, -160.56 -3 M-0.47 1 C-9.62 0.59, -28.9 -0.72, -55.76 -1.68 C-82.62 -2.63, -144.22 -4.21, -161.63 -4.72" stroke="#228be6" stroke-width="2" fill="none"></path></g><g transform="translate(862 424.274886556302) rotate(0 -80 -2.0983156220341925)"><path d="M-137.91 -12.62 C-145.61 -10.3, -151.13 -9.46, -161.63 -4.72 M-137.91 -12.62 C-147.91 -10.61, -156.72 -7.51, -161.63 -4.72" stroke="#228be6" stroke-width="2" fill="none"></path></g><g transform="translate(862 424.274886556302) rotate(0 -80 -2.0983156220341925)"><path d="M-138.38 4.48 C-146.01 2.49, -151.41 -0.96, -161.63 -4.72 M-138.38 4.48 C-148.15 -0.34, -156.77 -4.07, -161.63 -4.72" stroke="#228be6" stroke-width="2" fill="none"></path></g></g><mask></mask><g stroke-linecap="round"><g transform="translate(917 470) rotate(0 -51 70.5)"><path d="M0.09 1.17 C-4.47 21.17, -9.84 97.46, -26.86 120.92 C-43.88 144.38, -89.42 138.72, -102.02 141.91 M-1.33 0.73 C-5.55 20.86, -7.69 99.19, -24.6 122.41 C-41.51 145.63, -89.81 137.01, -102.79 140.05" stroke="#228be6" stroke-width="2" fill="none"></path></g><g transform="translate(917 470) rotate(0 -51 70.5)"><path d="M-79.66 130.59 C-85.51 132.38, -95.45 137.01, -102.79 140.05 M-79.66 130.59 C-88.28 133.99, -96.94 137.95, -102.79 140.05" stroke="#228be6" stroke-width="2" fill="none"></path></g><g transform="translate(917 470) rotate(0 -51 70.5)"><path d="M-78.99 147.67 C-85.19 143.66, -95.37 142.47, -102.79 140.05 M-78.99 147.67 C-87.8 144.65, -96.71 142.18, -102.79 140.05" stroke="#228be6" stroke-width="2" fill="none"></path></g></g><mask></mask><g stroke-linecap="round"><g transform="translate(469 256.8818370414805) rotate(0 -55 0)"><path d="M0.81 0.93 C-17.26 0.73, -90.89 0.01, -109.52 -0.12 M-0.23 0.37 C-18.32 0.88, -92.16 1.16, -110.22 1.36" stroke="#228be6" stroke-width="2" fill="none"></path></g><g transform="translate(469 256.8818370414805) rotate(0 -55 0)"><path d="M-86.79 -7.36 C-90.03 -4.6, -96.64 -5.22, -110.22 1.36 M-86.79 -7.36 C-93.85 -4.24, -101.07 -2.42, -110.22 1.36" stroke="#228be6" stroke-width="2" fill="none"></path></g><g transform="translate(469 256.8818370414805) rotate(0 -55 0)"><path d="M-86.67 9.74 C-90.08 8.95, -96.72 4.78, -110.22 1.36 M-86.67 9.74 C-93.66 7.54, -100.92 4.05, -110.22 1.36" stroke="#228be6" stroke-width="2" fill="none"></path></g></g><mask></mask><g stroke-linecap="round" transform="translate(10 10) rotate(0 562 365)"><path d="M0 0 C426.67 0, 853.34 0, 1124 0 M0 0 C418.46 0, 836.92 0, 1124 0 M1124 0 C1124 200.04, 1124 400.08, 1124 730 M1124 0 C1124 287.87, 1124 575.74, 1124 730 M1124 730 C821.23 730, 518.46 730, 0 730 M1124 730 C857.09 730, 590.17 730, 0 730 M0 730 C0 471.77, 0 213.54, 0 0 M0 730 C0 516.89, 0 303.79, 0 0" stroke="transparent" stroke-width="1" fill="none"></path></g></svg>