<svg version="1.1" xmlns="http://www.w3.org/2000/svg" viewBox="0 0 1140 800" width="1140" height="800"><!-- svg-source:excalidraw --><metadata></metadata><defs><style class="style-fonts">@font-face { font-family: Excalifont; src: url("/fonts/playpen-sans-v13-latin-500.woff2"); } @font-face {  font-family: "Comic Shanns"; src: url("/fonts/SVBasicManual.woff2"); }</style></defs><g stroke-linecap="round" transform="translate(10 50) rotate(0 260 370)"><path d="M32 0 C204.37 -2.61, 372.8 -1.48, 488 0 C512.42 3.16, 520.18 7.52, 520 32 C520.95 188.36, 520.12 340.82, 520 708 C520.97 730.85, 507.92 738.79, 488 740 C334.18 742.24, 176.28 741.95, 32 740 C12.21 736.46, 2.94 728.41, 0 708 C5.38 570.39, 5.77 433.57, 0 32 C2.03 10.74, 9.62 1.7, 32 0" stroke="none" stroke-width="0" fill="#ffffff"></path><path d="M32 0 C172.37 0.27, 313.12 0.68, 488 0 M32 0 C172.41 1.62, 312.88 1.98, 488 0 M488 0 C507.53 0.78, 520.22 9.37, 520 32 M488 0 C507.58 0.02, 519.02 8.44, 520 32 M520 32 C518.71 204.56, 518.74 375.82, 520 708 M520 32 C519.1 235.01, 519.3 438.8, 520 708 M520 708 C518.97 728.17, 507.98 738.32, 488 740 M520 708 C518.67 728.11, 507.36 741.52, 488 740 M488 740 C337.45 742.06, 186.97 741.74, 32 740 M488 740 C379.43 738.34, 271.8 737.92, 32 740 M32 740 C10 738.37, 1.5 731.1, 0 708 M32 740 C8.73 740.9, 2.08 727.78, 0 708 M0 708 C1.04 532.92, 1.27 357.21, 0 32 M0 708 C-0.92 461.58, -0.98 214.9, 0 32 M0 32 C-1.96 10.54, 11.81 0.77, 32 0 M0 32 C-1.01 11.02, 8.45 -0.53, 32 0" stroke="#1e1e1e" stroke-width="2" fill="none"></path></g><g stroke-linecap="round" transform="translate(690 50) rotate(0 220 120)"><path d="M32 0 C106.96 -5.76, 183.3 -2.12, 408 0 C427.87 1.22, 436.58 13.76, 440 32 C437.35 100.68, 436.69 172.19, 440 208 C439.36 228.56, 432.09 242.7, 408 240 C299.19 245.22, 187.35 243, 32 240 C9.87 240.98, -3.22 231.1, 0 208 C-0.87 172.01, -0.96 130.5, 0 32 C1.13 7.31, 8.64 -0.99, 32 0" stroke="none" stroke-width="0" fill="#ffffff"></path><path d="M32 0 C150.4 -1.21, 270.41 -3.34, 408 0 M32 0 C174.93 1.68, 319.37 1.88, 408 0 M408 0 C431.27 -1.18, 441.13 10.71, 440 32 M408 0 C428.66 1.08, 439.05 12.59, 440 32 M440 32 C440.43 81.37, 441.36 129.16, 440 208 M440 32 C439.31 81.94, 438.66 130.24, 440 208 M440 208 C440.26 230.35, 430.31 239.65, 408 240 M440 208 C441.31 230.07, 431.25 241.65, 408 240 M408 240 C326.01 240.3, 242.36 241.98, 32 240 M408 240 C311.46 241.49, 215.62 241.99, 32 240 M32 240 C8.88 240.57, -0.02 228.61, 0 208 M32 240 C12.25 242.02, -1.56 227.1, 0 208 M0 208 C1.21 146.79, -1.99 83.24, 0 32 M0 208 C2.06 168.39, 1.58 130.13, 0 32 M0 32 C-1.89 10.06, 10.72 -1.93, 32 0 M0 32 C2.23 11.22, 10.71 0.56, 32 0" stroke="#228be6" stroke-width="2" fill="none"></path></g><g transform="translate(30 70) rotate(0 270 350)"><text x="0" y="17.5" font-family="Comic Shanns, Segoe UI Emoji" font-size="20px" fill="#1e1e1e" text-anchor="start" style="white-space: pre;" direction="ltr" dominant-baseline="alphabetic">version:</text><text x="0" y="42.5" font-family="Comic Shanns, Segoe UI Emoji" font-size="20px" fill="#1e1e1e" text-anchor="start" style="white-space: pre;" direction="ltr" dominant-baseline="alphabetic">  name: velociraptor</text><text x="0" y="67.5" font-family="Comic Shanns, Segoe UI Emoji" font-size="20px" fill="#1e1e1e" text-anchor="start" style="white-space: pre;" direction="ltr" dominant-baseline="alphabetic">  ...</text><text x="0" y="92.5" font-family="Comic Shanns, Segoe UI Emoji" font-size="20px" fill="#1e1e1e" text-anchor="start" style="white-space: pre;" direction="ltr" dominant-baseline="alphabetic">Client:</text><text x="0" y="117.5" font-family="Comic Shanns, Segoe UI Emoji" font-size="20px" fill="#1e1e1e" text-anchor="start" style="white-space: pre;" direction="ltr" dominant-baseline="alphabetic">  server_urls:</text><text x="0" y="142.5" font-family="Comic Shanns, Segoe UI Emoji" font-size="20px" fill="#1e1e1e" text-anchor="start" style="white-space: pre;" direction="ltr" dominant-baseline="alphabetic">  - https://server.example.com:8000/</text><text x="0" y="167.5" font-family="Comic Shanns, Segoe UI Emoji" font-size="20px" fill="#1e1e1e" text-anchor="start" style="white-space: pre;" direction="ltr" dominant-baseline="alphabetic">  ca_certificate: |</text><text x="0" y="192.5" font-family="Comic Shanns, Segoe UI Emoji" font-size="20px" fill="#1e1e1e" text-anchor="start" style="white-space: pre;" direction="ltr" dominant-baseline="alphabetic">    ...</text><text x="0" y="217.5" font-family="Comic Shanns, Segoe UI Emoji" font-size="20px" fill="#1e1e1e" text-anchor="start" style="white-space: pre;" direction="ltr" dominant-baseline="alphabetic"></text><text x="0" y="242.5" font-family="Comic Shanns, Segoe UI Emoji" font-size="20px" fill="#1e1e1e" text-anchor="start" style="white-space: pre;" direction="ltr" dominant-baseline="alphabetic">API:</text><text x="0" y="267.5" font-family="Comic Shanns, Segoe UI Emoji" font-size="20px" fill="#1e1e1e" text-anchor="start" style="white-space: pre;" direction="ltr" dominant-baseline="alphabetic">  bind_address: 127.0.0.1</text><text x="0" y="292.5" font-family="Comic Shanns, Segoe UI Emoji" font-size="20px" fill="#1e1e1e" text-anchor="start" style="white-space: pre;" direction="ltr" dominant-baseline="alphabetic">  ...</text><text x="0" y="317.5" font-family="Comic Shanns, Segoe UI Emoji" font-size="20px" fill="#1e1e1e" text-anchor="start" style="white-space: pre;" direction="ltr" dominant-baseline="alphabetic">GUI:</text><text x="0" y="342.5" font-family="Comic Shanns, Segoe UI Emoji" font-size="20px" fill="#1e1e1e" text-anchor="start" style="white-space: pre;" direction="ltr" dominant-baseline="alphabetic">  bind_address: 127.0.0.1</text><text x="0" y="367.5" font-family="Comic Shanns, Segoe UI Emoji" font-size="20px" fill="#1e1e1e" text-anchor="start" style="white-space: pre;" direction="ltr" dominant-baseline="alphabetic">  bind_port: 8889</text><text x="0" y="392.5" font-family="Comic Shanns, Segoe UI Emoji" font-size="20px" fill="#1e1e1e" text-anchor="start" style="white-space: pre;" direction="ltr" dominant-baseline="alphabetic">  gw_certificate: |</text><text x="0" y="417.5" font-family="Comic Shanns, Segoe UI Emoji" font-size="20px" fill="#1e1e1e" text-anchor="start" style="white-space: pre;" direction="ltr" dominant-baseline="alphabetic">    ...</text><text x="0" y="442.5" font-family="Comic Shanns, Segoe UI Emoji" font-size="20px" fill="#1e1e1e" text-anchor="start" style="white-space: pre;" direction="ltr" dominant-baseline="alphabetic">CA:</text><text x="0" y="467.5" font-family="Comic Shanns, Segoe UI Emoji" font-size="20px" fill="#1e1e1e" text-anchor="start" style="white-space: pre;" direction="ltr" dominant-baseline="alphabetic">  private_key: |</text><text x="0" y="492.5" font-family="Comic Shanns, Segoe UI Emoji" font-size="20px" fill="#1e1e1e" text-anchor="start" style="white-space: pre;" direction="ltr" dominant-baseline="alphabetic">  ...</text><text x="0" y="517.5" font-family="Comic Shanns, Segoe UI Emoji" font-size="20px" fill="#1e1e1e" text-anchor="start" style="white-space: pre;" direction="ltr" dominant-baseline="alphabetic">Frontend:</text><text x="0" y="542.5" font-family="Comic Shanns, Segoe UI Emoji" font-size="20px" fill="#1e1e1e" text-anchor="start" style="white-space: pre;" direction="ltr" dominant-baseline="alphabetic">  hostname: server.example.com</text><text x="0" y="567.5" font-family="Comic Shanns, Segoe UI Emoji" font-size="20px" fill="#1e1e1e" text-anchor="start" style="white-space: pre;" direction="ltr" dominant-baseline="alphabetic">  bind_address: 0.0.0.0</text><text x="0" y="592.5" font-family="Comic Shanns, Segoe UI Emoji" font-size="20px" fill="#1e1e1e" text-anchor="start" style="white-space: pre;" direction="ltr" dominant-baseline="alphabetic">  bind_port: 8000</text><text x="0" y="617.5" font-family="Comic Shanns, Segoe UI Emoji" font-size="20px" fill="#1e1e1e" text-anchor="start" style="white-space: pre;" direction="ltr" dominant-baseline="alphabetic">  ...</text><text x="0" y="642.5" font-family="Comic Shanns, Segoe UI Emoji" font-size="20px" fill="#1e1e1e" text-anchor="start" style="white-space: pre;" direction="ltr" dominant-baseline="alphabetic">Datastore:</text><text x="0" y="667.5" font-family="Comic Shanns, Segoe UI Emoji" font-size="20px" fill="#1e1e1e" text-anchor="start" style="white-space: pre;" direction="ltr" dominant-baseline="alphabetic">  implementation: FileBaseDataStore</text><text x="0" y="692.5" font-family="Comic Shanns, Segoe UI Emoji" font-size="20px" fill="#1e1e1e" text-anchor="start" style="white-space: pre;" direction="ltr" dominant-baseline="alphabetic">  ...</text></g><g transform="translate(710 70) rotate(0 200 100)"><text x="0" y="17.5" font-family="Comic Shanns, Segoe UI Emoji" font-size="20px" fill="#1e1e1e" text-anchor="start" style="white-space: pre;" direction="ltr" dominant-baseline="alphabetic">version:</text><text x="0" y="42.5" font-family="Comic Shanns, Segoe UI Emoji" font-size="20px" fill="#1e1e1e" text-anchor="start" style="white-space: pre;" direction="ltr" dominant-baseline="alphabetic">  name: velociraptor</text><text x="0" y="67.5" font-family="Comic Shanns, Segoe UI Emoji" font-size="20px" fill="#1e1e1e" text-anchor="start" style="white-space: pre;" direction="ltr" dominant-baseline="alphabetic">  ...</text><text x="0" y="92.5" font-family="Comic Shanns, Segoe UI Emoji" font-size="20px" fill="#1e1e1e" text-anchor="start" style="white-space: pre;" direction="ltr" dominant-baseline="alphabetic">Client:</text><text x="0" y="117.5" font-family="Comic Shanns, Segoe UI Emoji" font-size="20px" fill="#1e1e1e" text-anchor="start" style="white-space: pre;" direction="ltr" dominant-baseline="alphabetic">  server_urls:</text><text x="0" y="142.5" font-family="Comic Shanns, Segoe UI Emoji" font-size="20px" fill="#1e1e1e" text-anchor="start" style="white-space: pre;" direction="ltr" dominant-baseline="alphabetic">  - https://server.example.com:8000/</text><text x="0" y="167.5" font-family="Comic Shanns, Segoe UI Emoji" font-size="20px" fill="#1e1e1e" text-anchor="start" style="white-space: pre;" direction="ltr" dominant-baseline="alphabetic">  ca_certificate: |</text><text x="0" y="192.5" font-family="Comic Shanns, Segoe UI Emoji" font-size="20px" fill="#1e1e1e" text-anchor="start" style="white-space: pre;" direction="ltr" dominant-baseline="alphabetic">    ...</text></g><g stroke-linecap="round"><g transform="translate(551.1621493511577 149.72222222222223) rotate(0 62.22226947104656 19.722222222222257)" fill-rule="evenodd"><path d="M0 0 C0 0, 0 0, 0 0 M0 0 C0 0, 0 0, 0 0 M-0.26 6.4 C0.98 5.06, 3.34 1.74, 4.99 0.36 M-0.26 6.4 C1.4 3.78, 4.04 1.61, 4.99 0.36 M0.13 12.04 C4.4 6.72, 9.29 1.74, 10.63 -0.03 M0.13 12.04 C3.66 7.04, 8.8 2.77, 10.63 -0.03 M-0.13 18.44 C6.68 11.37, 12.45 3.43, 15.62 0.33 M-0.13 18.44 C4.06 13.9, 7.87 10.1, 15.62 0.33 M0.27 24.08 C8.35 15.84, 17.29 4.65, 21.26 -0.07 M0.27 24.08 C5.89 18.33, 10.55 10.56, 21.26 -0.07 M0 30.48 C6.06 24.24, 10.36 19.2, 26.25 0.29 M0 30.48 C10.97 19.36, 19.7 8.22, 26.25 0.29 M-0.26 36.88 C11.16 20.52, 25.61 8.89, 31.89 -0.1 M-0.26 36.88 C7.43 26.29, 17.12 15.6, 31.89 -0.1 M2.76 39.5 C16.7 21.96, 29.91 10.17, 36.88 0.26 M2.76 39.5 C12.43 29.37, 20.58 18.98, 36.88 0.26 M7.75 39.86 C20.98 24.47, 33.69 8.66, 42.52 -0.14 M7.75 39.86 C19.96 27.61, 30.48 14.38, 42.52 -0.14 M13.39 39.47 C25.24 23.55, 39.14 9.43, 47.51 0.22 M13.39 39.47 C20.03 31.77, 27.01 23.59, 47.51 0.22 M18.38 39.83 C25.29 28.89, 35.04 20.46, 53.15 -0.17 M18.38 39.83 C29.6 25.48, 43.16 11.39, 53.15 -0.17 M24.02 39.43 C38.23 24.83, 50.97 10.16, 58.14 0.19 M24.02 39.43 C30.82 31.52, 38.1 22.23, 58.14 0.19 M75.19 -19.43 C75.19 -19.43, 75.19 -19.43, 75.19 -19.43 M75.19 -19.43 C75.19 -19.43, 75.19 -19.43, 75.19 -19.43 M29.01 39.79 C39.76 28.01, 49.2 16.14, 63.78 -0.21 M29.01 39.79 C37.28 32.6, 42.39 22.67, 63.78 -0.21 M74.93 -13.04 C75.75 -14.41, 77.42 -15.69, 78.21 -16.81 M74.93 -13.04 C75.6 -14.34, 76.6 -15.22, 78.21 -16.81 M34.65 39.4 C43.38 30.34, 50.75 18.06, 68.77 0.15 M34.65 39.4 C42.59 30.52, 52.38 20.24, 68.77 0.15 M75.33 -7.39 C76.38 -9.45, 77.93 -11.08, 81.23 -14.19 M75.33 -7.39 C76.37 -9.31, 78.24 -10.81, 81.23 -14.19 M39.64 39.76 C53.35 22.48, 69.23 9.06, 74.41 -0.24 M39.64 39.76 C47 30.58, 54.65 22.02, 74.41 -0.24 M75.07 -1 C78.14 -4.49, 79.23 -6.06, 84.25 -11.56 M75.07 -1 C78.46 -4.1, 81.44 -8.1, 84.25 -11.56 M45.28 39.36 C55.99 25.97, 65.84 15.04, 87.93 -9.69 M45.28 39.36 C60.08 23.09, 73.44 7.64, 87.93 -9.69 M50.27 39.72 C64.02 28.03, 72.02 11.95, 90.95 -7.07 M50.27 39.72 C65.45 22.51, 80.18 5.89, 90.95 -7.07 M55.91 39.33 C68.29 27.62, 78.32 13.47, 93.96 -4.44 M55.91 39.33 C70.86 20.99, 86.93 4.39, 93.96 -4.44 M60.9 39.69 C68.99 26.19, 80.57 16.13, 96.98 -1.82 M60.9 39.69 C68.8 31.06, 75.97 22.82, 96.98 -1.82 M66.54 39.29 C78.85 27.92, 88.43 13.33, 100 0.8 M66.54 39.29 C79.52 24.46, 92.14 8.8, 100 0.8 M71.53 39.65 C77.04 31.76, 85.66 22.97, 103.68 2.67 M71.53 39.65 C83.34 25.68, 96.06 11.03, 103.68 2.67 M75.2 41.52 C81.17 33.85, 90.19 26.28, 106.7 5.3 M75.2 41.52 C82.9 33.92, 88.37 26.36, 106.7 5.3 M74.94 47.92 C81.41 38.02, 90.22 28.18, 109.71 7.92 M74.94 47.92 C87.94 33.85, 102.18 17.13, 109.71 7.92 M75.34 53.57 C86.48 42.74, 98.16 29.91, 112.73 10.55 M75.34 53.57 C90.85 36.29, 103.83 20.43, 112.73 10.55 M75.08 59.96 C92.21 43.57, 106.68 24.65, 115.75 13.17 M75.08 59.96 C82.53 50.47, 91.05 40.88, 115.75 13.17 M92.53 45.98 C99.1 38.11, 104.54 30.93, 118.77 15.8 M92.53 45.98 C103.75 33.64, 113.09 22.37, 118.77 15.8 M109.32 32.76 C114.05 27.35, 117.01 22.95, 122.45 17.66 M109.32 32.76 C113.58 28.12, 116.26 24.39, 122.45 17.66" stroke="#228be6" stroke-width="0.5" fill="none"></path><path d="M0 0 C-0.69 13.35, -2.23 28.79, 0 39.44 M0 0 C0.4 11.84, 0.08 22.7, 0 39.44 M0 39.44 C19.75 40.07, 39.89 41.19, 74.67 39.44 M0 39.44 C21.59 38.2, 44.44 37.8, 74.67 39.44 M74.67 39.44 C74.71 44.72, 72.99 52.58, 74.67 59.17 M74.67 39.44 C74.05 44.79, 74.34 50.56, 74.67 59.17 M74.67 59.17 C88.54 46.78, 101.62 35.02, 124.44 19.72 M74.67 59.17 C86.85 48.43, 99.61 38.21, 124.44 19.72 M124.44 19.72 C113.12 11.16, 101.4 1.41, 74.67 -19.72 M124.44 19.72 C104.36 5.84, 85.09 -11.25, 74.67 -19.72 M74.67 -19.72 C74.03 -15.05, 76.17 -5.42, 74.67 0 M74.67 -19.72 C74.08 -15.87, 74.27 -11.42, 74.67 0 M74.67 0 C54.71 1.26, 35.35 1.52, 0 0 M74.67 0 C58.08 -1.58, 39.9 -0.03, 0 0 M0 0 C0 0, 0 0, 0 0 M0 0 C0 0, 0 0, 0 0" stroke="#228be6" stroke-width="1" fill="none"></path></g></g><mask></mask><g stroke-linecap="round" transform="translate(17.77777777777783 60) rotate(0 250 110)"><path d="M32 0 C197.14 -0.31, 363.21 0.91, 468 0 M468 0 C489.37 0.49, 498.04 10.83, 500 32 M500 32 C498.53 94.58, 498.42 154.84, 500 188 M500 188 C498.1 211.05, 491.24 218.56, 468 220 M468 220 C332.75 219.7, 197.89 219.21, 32 220 M32 220 C12.2 221.5, -0.17 210.55, 0 188 M0 188 C-1.8 127.25, -1.07 68.03, 0 32 M0 32 C-1.79 11.65, 8.9 -0.7, 32 0" stroke="#228be6" stroke-width="2.5" fill="none" stroke-dasharray="8 10"></path></g><g transform="translate(150 10) rotate(0 120 12.5)"><text x="120" y="17.619999999999997" font-family="Excalifont, Xiaolai, Segoe UI Emoji" font-size="20px" fill="#1e1e1e" text-anchor="middle" style="white-space: pre;" direction="ltr" dominant-baseline="alphabetic">server.config.yaml</text></g><g transform="translate(790 10) rotate(0 120 12.5)"><text x="120" y="17.619999999999997" font-family="Excalifont, Xiaolai, Segoe UI Emoji" font-size="20px" fill="#1e1e1e" text-anchor="middle" style="white-space: pre;" direction="ltr" dominant-baseline="alphabetic">client.config.yaml</text></g></svg>