<?xml version="1.0" standalone="no"?>
<!DOCTYPE svg PUBLIC "-//W3C//DTD SVG 1.1//EN" "http://www.w3.org/Graphics/SVG/1.1/DTD/svg11.dtd">
<svg version="1.1" xmlns="http://www.w3.org/2000/svg" viewBox="0 0 1144 750" width="2288" height="1500"><!-- svg-source:excalidraw --><metadata><!-- payload-type:application/vnd.excalidraw+json --><!-- payload-version:2 --><!-- payload-start -->eyJ2ZXJzaW9uIjoiMSIsImVuY29kaW5nIjoiYnN0cmluZyIsImNvbXByZXNzZWQiOnRydWUsImVuY29kZWQiOiJ4nO1bWXPayFx1MDAxNn73r1AxXHUwMDBmmblcdTAwMTUz6r3lqnmwseMl2CaA15spl4BcdTAwMDZkZEnWYrDn+r9PS1x1MDAwNi1IXHUwMDEwMDhx3bJSSaHTi053f99Zujv/bChKyX90RGlLKYlRWzeNjqtcdTAwMGZLn0P5g3A9w7ZkXHUwMDExjN49O3DbUc2+7zve1p9/Ji3KbfvupZUwxZ2wfE/W+698V5R/on9lidFcdNvSPlx1MDAxZOw/qWh31DU2jfrRWVx1MDAxYt18jZpGlSbK+GLkJ9KRXHUwMDE0YazF74+hUlx1MDAxMJZJLFx1MDAxOVx1MDAxYVx1MDAxZL8vpZSVXHUwMDE5glDTuIopZ0mFvjB6fV/WQIlMt3pm+DU1lni+a1x1MDAwZkTFNm031OI3IMI/iVwiLb096Ll2YHXiOr6rW56ju3LQSb2uYZpccv8x6l1OnJyk0tQ3LsZcbsMpedyqo3t9kWomv9rrW8LzMo1sR29cdTAwMWJ+OFx1MDAxZkBNhlx1MDAxMaroXHUwMDFjdqJF+DtRytXvxGG4XG5WYJqx2LA6XCKc4JK+zzOfszrjz2Wqe0KEXVx1MDAwMFx1MDAwNlx1MDAxOMRcdTAwMTRcdTAwMTNcdTAwMTCXJIChmE9LT2wrXHUwMDAyj1xcXHUwMDE1jWtq0srwdiVm/KjTrm56XCKZ7FCFvVx1MDAxNJ6SoVx1MDAwNE5H98d6XHUwMDEwzCiGhFx1MDAwMoTjctOwXHUwMDA204qbdntQ8JVcYmly9Ffbx9XUXHUwMDAy2pbfMJ5CjSHPSL/od4ZcdTAwMTlOOMl0sW1cdTAwMWG9cOglU3RTQJCj91xyyZK42LedpLQt+9Nccku4+VWxXaNnWLrZLFRPXHUwMDBmfLsuvFx1MDAxN1x1MDAwNX03XHUwMDEw6ZGLg1x01kFcdTAwMTmSqOD5c1x1MDAxMVx1MDAxNy9aRv2gZjevmlx1MDAwM6yNdmu3+zt33/JcXHRF23+hSoaQiGtlNfUkS1x1MDAxYdGT0lx1MDAxYzk5T1Yo5iOFScVcdTAwMWZcdTAwMTOSUy40OpeQv3Wj5zVkXHUwMDA0U/JZrX5cdTAwMDZcdTAwMTf3i7k4WcJkfdBY8jxNUUpcdTAwMTlcdTAwMDZAUrSAoZjkpFx1MDAxM4ZcdTAwMDJcdTAwMTUxXHUwMDE1yr9r5yiFXHUwMDA0LsPROdDFo9v727ZoXHUwMDBl+CNcdTAwMGXcy/Oz+6Mna2HoYkAyYMWA5cBcbjjPg1x1MDAxNS+B1ULHUITXXHUwMDE27MJWa63OY1x1MDAwZV7BXHUwMDFi4fXrynhcdTAwMDWQS2PAmFZcdTAwMDRYhmfiXHUwMDE1QUZcdTAwMTDhKnpccl5j9Vx1MDAxMkVjkFx1MDAxZJ47dXJ1ca633ODwwHVcdTAwMWLquWjGw8xcdTAwMDBNd117WIpLnse/5rGBY5XR9bDBrdiXPXhZZ7tXnZ3L4NZsXHUwMDA2am1xNjBWzvKBYFJcdTAwMTBbpclcdTAwMWIzXHUwMDAyQFTWMs9cdTAwMWIwRCdcdTAwMWT+Oov+nlx1MDAxOHJ8vjJFXHUwMDEww1QlXGJpRVxmIWxcdTAwMTZFMKaMapqqvYYhczBMkUY5XFxcdTAwMTOGTy5ws/Z4cVNcdTAwMDGON7hcdTAwMWNcdTAwMGVcdTAwMGY8p5rHcEFiXHUwMDAwcFx1MDAxOTCuYYYxZ0jFLItlTS3CMipLXHUwMDAyQqBClaiMXHUwMDAzuGqmXHUwMDAwIW+J+YHJiplcdTAwMDJ+R1A+WTxRIEhONFx1MDAwMoVGXHUwMDFkplxm4Fx1MDAxNGSlIcFcdTAwMWNL6/KrIZtLXHUwMDE0zr+95zwho9160lx1MDAwNGFcXG9+rWj0xrjxXHUwMDFlmn7Lv+p11Fx1MDAxNbxcdTAwMGJcdTAwMDP51ICmWPvhW15ByM7KvkUulFx1MDAwNjHgRb6FsJx0QtTQ4lKCaLLG78+33FrN4Nq/MbZPLoIvXHUwMDA3vUH9wTlabNNpvm9hXHUwMDE05JD84VlWXHUwMDAzsrnMXHUwMDFlXHUwMDE0YVx1MDAxMFx1MDAxMVa0XHUwMDA1ld5ccppGLNEoYPh1+cKHa1x1MDAxOeN2La7l9oFcdTAwMGbrJ7XTi4furXqtX3dcdTAwMWKbtfvFdoOz202SmnmfQrTQfVx1MDAwMExmXHUwMDEyUZYswcRfuFx1MDAxYvxcdTAwMGKYeLo4XHUwMDExmVx1MDAwNqhcXFx1MDAwMVjoOtC0cMJDmbdDRFXtVftMsV8ryNsrO6Pmfe1Mvzx64lx1MDAwZmYrqFxmXHUwMDAzV1tb3r7sLlaO5Zac+S1lX0jSXHUwMDE57XLFNOSYylXd88884X63vssl8Nqu4fhyrraU/323XHUwMDE05Vsg61xuT/FtpSuXSPH7QjFlXHUwMDBixbR7PdFRbEtcdMaNw5FtKZXq4d5JM3x/ObbxtsJuNlx1MDAxNUdGabbVMV76buxV9ypN5T/KXHUwMDE3175TXGara//+hzLsXHUwMDBiVyinXHLlL+XTUH7MXHUwMDFlep/CxopyL7V4XHUwMDFja1x1MDAxND7j5idyPMp2Q5lcZuGzcuxcdTAwMWKJqGpLKzJp8qV+eqxsS4PU1dt++eKl+3Lj0SuHLb3f/5hUPK3v7tWVnaukXHUwMDBiZXevUZlcdTAwMTRXXHUwMDBmj1x1MDAwZptcbpi8vmpwcumC0fyhmeGHb0LVslx1MDAwM3yRLzjKavidaIyTXHUwMDBlosrLj7XYN6hcdTAwMTlp7Fx1MDAxYnhcdTAwMDZ3b+1cdTAwMWI+MP2B6Vx1MDAxNTG9nojCXHUwMDE3nqU6XHUwMDA3lc5j7/a0p4ljszU6XiSiXHUwMDAwIOWpouCKXHUwMDE3pKkyl/1RSLFMRPH2sf17iiiWXGLtKcRcdTAwMTBcdTAwMDE5yYWh/cyQXHUwMDAyMFx1MDAxYVx1MDAwNlx1MDAxNVx1MDAxYV/3TufqXl9Gz9+t+1x1MDAxN5u3lCH/6UF+gZrr4WbNabftb5x5onr8NLqx9Eu6XHUwMDBiXHUwMDE24SZLnbtF53Uomav4vE5cdTAwMDNlzjSuUlx1MDAwMjghRftJ8CPtnkHNg8WZyVx05ppcbmlRrFx1MDAwZrg6LZ0wk1x1MDAxMyhcdTAwMTN1ja476V6dmE1cdTAwMTl36GO/9kmGIyFcbt8vP+dqu1x1MDAxZZrOT5+mUqcpXHUwMDFmXG6zabnM7sqQYc4pITJDTJxRzFqazGpyyl6WQKFcYkCMVcpcdTAwMTF/X7R9R1x1MDAxZfVw0U1fOJbkXHUwMDBmXHUwMDE0ISWqhmjOo0ZcdTAwMTZ15oFcIkAqXCJUI+iX31x1MDAxMYnFjm1Mb1xyJL+UXHUwMDA0MdFL/Pvvz4W1N5PrMdEr/GGDXHUwMDE0kKP3XHUwMDFjhpNcdTAwMWU2pnoqhVlPxb67M3w5XHUwMDE3tXBcdTAwMWM52+tLzu/IhTesXnaBx/ctXHUwMDBmXHUwMDE32E6LXGZXO/DS/Fx0sac7kXVcdTAwMGIvc0njjjVcYjgjOcBcYquTKJBXbju0XHUwMDA2faHn0CrbpcumzYYwW/ZwoU18s/d0c3revN70zWB0d9q77T9ccjdcdTAwMTc0SyxcdTAwMWI/UJI/XHUwMDExXHUwMDA2KeuUnECltlx1MDAxOT9sT9b2LHybYbbxwVx1MDAwNGFGXG5vM1x1MDAwMDD7wlx1MDAwZuBcdTAwMTRTidX3XHUwMDEzS6zX+CQ3XCLDR/rUXHUwMDFmW59cdTAwMDS8UVx1MDAxM5xqsrq5mebzr7VcdTAwMDPzb2XNs1x1MDAwMyx1jlx1MDAxMqVcdTAwMTFYplxmXHUwMDFjcMRUXGYwV1x1MDAwYoxcdTAwMDIoXGJPPlx1MDAxMvxcdTAwMTkm4Whli0BkrMgowUUnemTmXVx1MDAxMVxmVMldSv5fg5FcdTAwMTRcbqdcdTAwMWG8JbdnXHUwMDA1XHUwMDE586/epoOMslxmXHUwMDEzsbTwXHUwMDFjSmsto8VUTDWOOkA+zvhJVmRYodtHp/uXT53BU+24jVrVszOat1wiMy61QJq1JOnrTYntKLovydBcdTAwMTLmY9FLLCuakNdcXHtPdF6rXHRpXHUwMDE2m5DC039cdTAwMTVcdTAwMTOgymi1KHeBbPb9dsBcdTAwMTDmXHUwMDFhS935XtP5P9RcdTAwMTBP5nLRXHUwMDFiK1x1MDAxYmP+lnTHafiyy5h7pVx1MDAwN0NcZndm/1x1MDAwZoeNMbjDpVx1MDAxNpGlfd54/lx1MDAxN588sDUifQ==<!-- payload-end --></metadata><defs><style class="style-fonts">@font-face { font-family: Excalifont; src: url("/fonts/playpen-sans-v13-latin-500.woff2"); } @font-face {  font-family: "Comic Shanns"; src: url("/fonts/SVBasicManual.woff2"); }</style></defs><g transform="translate(191 37.5) rotate(0 33.86614990234375 17.5)"><text x="0" y="24.668" font-family="Excalifont, Xiaolai, Segoe UI Emoji" font-size="28px" fill="#1e1e1e" text-anchor="start" style="white-space: pre;" direction="ltr" dominant-baseline="alphabetic">YAML</text></g><g stroke-linecap="round" transform="translate(131.0000000000001 81) rotate(0 441.99999999999994 313)"><path d="M32 0 C265.25 0.11, 499.27 2.78, 852 0 C874.86 -1.04, 886.22 8.61, 884 32 C881.21 143.83, 882.16 256.31, 884 594 C886.25 620.48, 876.2 626.54, 852 626 C687.79 620.61, 519.68 616.93, 32 626 C13.78 624.61, 1.94 619.3, 0 594 C-6.3 394.94, -4.39 198.46, 0 32 C-3.07 5.68, 13.69 3.42, 32 0" stroke="none" stroke-width="0" fill="#ffffff"></path><path d="M32 0 C201.81 -5, 370.66 -4.64, 852 0 M32 0 C327.7 -3.03, 624.1 -2.78, 852 0 M852 0 C870.96 3.45, 886.29 9.86, 884 32 M852 0 C869.74 -3.9, 887.33 12.61, 884 32 M884 32 C880.35 170.11, 879.25 308.45, 884 594 M884 32 C879.86 201.02, 879.93 370.64, 884 594 M884 594 C883.7 612.67, 872.99 628.28, 852 626 M884 594 C883.22 616.73, 869.86 627.01, 852 626 M852 626 C588.97 630.71, 328.64 629.77, 32 626 M852 626 C535.34 625.02, 218.13 625.21, 32 626 M32 626 C11.22 628.03, -2.51 616.62, 0 594 M32 626 C15.27 623.61, -0.2 611.65, 0 594 M0 594 C-0.53 418.71, 0.46 244.62, 0 32 M0 594 C-4.59 394.65, -5.07 195.32, 0 32 M0 32 C3.56 8.7, 13.36 -1.79, 32 0 M0 32 C-4.33 12.26, 12.99 4.47, 32 0" stroke="#868e96" stroke-width="1" fill="none"></path></g><g stroke-linecap="round" transform="translate(157 232) rotate(0 94 23)"><path d="M11.5 0 C44.16 -5.39, 82.08 -2.04, 176.5 0 C186.78 -3.45, 189.78 1.42, 188 11.5 C185.8 19.59, 185.26 25.61, 188 34.5 C187.98 44.36, 184.42 44.48, 176.5 46 C135.04 46.13, 99.41 47.82, 11.5 46 C3.86 43.73, -0.36 44.72, 0 34.5 C0.42 28.53, -2.16 18.04, 0 11.5 C3.26 2.73, 6.58 -0.62, 11.5 0" stroke="none" stroke-width="0" fill="#b2f2bb"></path><path d="M11.5 0 C66.42 -1.87, 118.2 -0.6, 176.5 0 M11.5 0 C70.01 0.27, 127.13 0.37, 176.5 0 M176.5 0 C184.82 -1.42, 186.79 3.39, 188 11.5 M176.5 0 C184.69 0.6, 188.5 2.62, 188 11.5 M188 11.5 C187.62 19, 188.94 26.02, 188 34.5 M188 11.5 C187.92 20.07, 188.13 29.33, 188 34.5 M188 34.5 C186.61 42.38, 186.12 47.44, 176.5 46 M188 34.5 C187.52 40.86, 183.75 46.31, 176.5 46 M176.5 46 C111.54 43.63, 49.34 44.33, 11.5 46 M176.5 46 C110.86 44.93, 46.11 46.21, 11.5 46 M11.5 46 C4.13 45.86, 0.93 41.36, 0 34.5 M11.5 46 C2.85 44.04, -0.99 41.71, 0 34.5 M0 34.5 C-0.41 30.61, -1.14 23.2, 0 11.5 M0 34.5 C-0.01 25.66, -0.31 19.2, 0 11.5 M0 11.5 C-0.19 2.45, 5.41 -1.86, 11.5 0 M0 11.5 C0.36 5.88, 4.96 1.11, 11.5 0" stroke="transparent" stroke-width="2" fill="none"></path></g><g stroke-linecap="round" transform="translate(219.5 360.5) rotate(0 262 62)"><path d="M31 0 C134.82 1.6, 234.59 0.93, 493 0 C514.06 -0.37, 525.36 10.7, 524 31 C526.4 50.98, 527.92 74.07, 524 93 C525.26 115.11, 510.16 124.13, 493 124 C345.53 124.66, 200.51 124.35, 31 124 C11.14 126.96, -2.55 114.04, 0 93 C2.65 77.09, 2.17 65.63, 0 31 C1.9 7.92, 9.37 2.78, 31 0" stroke="none" stroke-width="0" fill="#a5d8ff"></path><path d="M31 0 C156.39 1.91, 280.65 1.24, 493 0 M31 0 C144.9 -0.79, 257.61 -0.84, 493 0 M493 0 C515.26 -0.79, 525.63 10.7, 524 31 M493 0 C511.42 -1.44, 523.21 9.06, 524 31 M524 31 C521.81 55.99, 522.7 80.88, 524 93 M524 31 C523.68 48.86, 523.14 66.61, 524 93 M524 93 C522.73 112.1, 513.52 124.41, 493 124 M524 93 C523.99 115.03, 515.76 121.81, 493 124 M493 124 C321.78 122.72, 149.33 122.71, 31 124 M493 124 C372.46 122.99, 252.61 122.86, 31 124 M31 124 C9.73 123.05, 1.43 114.39, 0 93 M31 124 C11.78 122.04, -1.22 115.59, 0 93 M0 93 C1.82 76.48, -1.13 59.03, 0 31 M0 93 C0.67 70.61, -0.65 47.16, 0 31 M0 31 C-0.26 9.02, 11.79 1.2, 31 0 M0 31 C1.11 10.51, 11.36 -0.18, 31 0" stroke="transparent" stroke-width="2" fill="none"></path></g><g transform="translate(156.17894744873047 405.5) rotate(0 26.642105102539062 17.5)"><text x="0" y="24.668" font-family="Excalifont, Xiaolai, Segoe UI Emoji" font-size="28px" fill="#228be6" text-anchor="start" style="white-space: pre;" direction="ltr" dominant-baseline="alphabetic">VQL</text></g><g stroke-linecap="round" transform="translate(219.5 531) rotate(0 323.5 62)"><path d="M31 0 C171.78 2.33, 314.83 1.36, 616 0 C636.74 1.58, 650.02 8.09, 647 31 C645.63 47.98, 645.9 61.89, 647 93 C649.89 110.78, 637.15 126.81, 616 124 C420.36 123.65, 224.33 122.77, 31 124 C7.6 121.83, 2.85 110.58, 0 93 C0.01 71.8, 1.55 50.18, 0 31 C-3.37 13.12, 9.87 1.07, 31 0" stroke="none" stroke-width="0" fill="#a5d8ff"></path><path d="M31 0 C234.88 -2.08, 440.78 -1.81, 616 0 M31 0 C218.55 -1.25, 406.7 -1.9, 616 0 M616 0 C638.21 -0.82, 647.36 10.58, 647 31 M616 0 C638.78 -0.19, 646.55 9.74, 647 31 M647 31 C648.71 51.39, 647.35 75.66, 647 93 M647 31 C646.72 54.17, 646.48 77.61, 647 93 M647 93 C647 115.45, 636.88 123.37, 616 124 M647 93 C647.59 113.19, 638.39 122.54, 616 124 M616 124 C487.78 126.28, 358.85 125.46, 31 124 M616 124 C492.45 122.53, 368.46 122.32, 31 124 M31 124 C10.16 123.01, -0.8 114.57, 0 93 M31 124 C8.42 123.82, 1.27 113.28, 0 93 M0 93 C-0.17 71.53, 0.21 51.13, 0 31 M0 93 C0.33 75.66, 0.61 59.35, 0 31 M0 31 C-0.74 9.57, 9.74 -1.09, 31 0 M0 31 C-1.56 12.62, 8.57 -1.75, 31 0" stroke="transparent" stroke-width="2" fill="none"></path></g><g transform="translate(156.17894744873047 576) rotate(0 26.642105102539062 17.5)"><text x="0" y="24.668" font-family="Excalifont, Xiaolai, Segoe UI Emoji" font-size="28px" fill="#228be6" text-anchor="start" style="white-space: pre;" direction="ltr" dominant-baseline="alphabetic">VQL</text></g><g transform="translate(183 119) rotate(0 329.99957275390625 275)"><text x="0" y="17.5" font-family="Comic Shanns, Segoe UI Emoji" font-size="20px" fill="#1e1e1e" text-anchor="start" style="white-space: pre;" direction="ltr" dominant-baseline="alphabetic">name: Generic.Client.LastUser</text><text x="0" y="42.5" font-family="Comic Shanns, Segoe UI Emoji" font-size="20px" fill="#1e1e1e" text-anchor="start" style="white-space: pre;" direction="ltr" dominant-baseline="alphabetic"></text><text x="0" y="67.5" font-family="Comic Shanns, Segoe UI Emoji" font-size="20px" fill="#1e1e1e" text-anchor="start" style="white-space: pre;" direction="ltr" dominant-baseline="alphabetic">description: |</text><text x="0" y="92.5" font-family="Comic Shanns, Segoe UI Emoji" font-size="20px" fill="#1e1e1e" text-anchor="start" style="white-space: pre;" direction="ltr" dominant-baseline="alphabetic">  Queries to find the last logged on user</text><text x="0" y="117.5" font-family="Comic Shanns, Segoe UI Emoji" font-size="20px" fill="#1e1e1e" text-anchor="start" style="white-space: pre;" direction="ltr" dominant-baseline="alphabetic"></text><text x="0" y="142.5" font-family="Comic Shanns, Segoe UI Emoji" font-size="20px" fill="#1e1e1e" text-anchor="start" style="white-space: pre;" direction="ltr" dominant-baseline="alphabetic">type: CLIENT</text><text x="0" y="167.5" font-family="Comic Shanns, Segoe UI Emoji" font-size="20px" fill="#1e1e1e" text-anchor="start" style="white-space: pre;" direction="ltr" dominant-baseline="alphabetic"></text><text x="0" y="192.5" font-family="Comic Shanns, Segoe UI Emoji" font-size="20px" fill="#1e1e1e" text-anchor="start" style="white-space: pre;" direction="ltr" dominant-baseline="alphabetic">sources:</text><text x="0" y="217.5" font-family="Comic Shanns, Segoe UI Emoji" font-size="20px" fill="#1e1e1e" text-anchor="start" style="white-space: pre;" direction="ltr" dominant-baseline="alphabetic">  - precondition: SELECT * From info() where OS = 'windows'</text><text x="0" y="242.5" font-family="Comic Shanns, Segoe UI Emoji" font-size="20px" fill="#1e1e1e" text-anchor="start" style="white-space: pre;" direction="ltr" dominant-baseline="alphabetic">    query: |</text><text x="0" y="267.5" font-family="Comic Shanns, Segoe UI Emoji" font-size="20px" fill="#1e1e1e" text-anchor="start" style="white-space: pre;" direction="ltr" dominant-baseline="alphabetic">      SELECT Name AS LastUser, Mtime AS LastLogin</text><text x="0" y="292.5" font-family="Comic Shanns, Segoe UI Emoji" font-size="20px" fill="#1e1e1e" text-anchor="start" style="white-space: pre;" direction="ltr" dominant-baseline="alphabetic">      FROM Artifact.Windows.Sys.Users()</text><text x="0" y="317.5" font-family="Comic Shanns, Segoe UI Emoji" font-size="20px" fill="#1e1e1e" text-anchor="start" style="white-space: pre;" direction="ltr" dominant-baseline="alphabetic">      ORDER BY LastLogin DESC</text><text x="0" y="342.5" font-family="Comic Shanns, Segoe UI Emoji" font-size="20px" fill="#1e1e1e" text-anchor="start" style="white-space: pre;" direction="ltr" dominant-baseline="alphabetic">      LIMIT 1</text><text x="0" y="367.5" font-family="Comic Shanns, Segoe UI Emoji" font-size="20px" fill="#1e1e1e" text-anchor="start" style="white-space: pre;" direction="ltr" dominant-baseline="alphabetic">      </text><text x="0" y="392.5" font-family="Comic Shanns, Segoe UI Emoji" font-size="20px" fill="#1e1e1e" text-anchor="start" style="white-space: pre;" direction="ltr" dominant-baseline="alphabetic">  - precondition: SELECT * From info() where OS = 'linux'</text><text x="0" y="417.5" font-family="Comic Shanns, Segoe UI Emoji" font-size="20px" fill="#1e1e1e" text-anchor="start" style="white-space: pre;" direction="ltr" dominant-baseline="alphabetic">    query: |</text><text x="0" y="442.5" font-family="Comic Shanns, Segoe UI Emoji" font-size="20px" fill="#1e1e1e" text-anchor="start" style="white-space: pre;" direction="ltr" dominant-baseline="alphabetic">      SELECT login_User AS LastUser, login_time AS LastLogin</text><text x="0" y="467.5" font-family="Comic Shanns, Segoe UI Emoji" font-size="20px" fill="#1e1e1e" text-anchor="start" style="white-space: pre;" direction="ltr" dominant-baseline="alphabetic">      FROM Artifact.Linux.Sys.LastUserLogin()</text><text x="0" y="492.5" font-family="Comic Shanns, Segoe UI Emoji" font-size="20px" fill="#1e1e1e" text-anchor="start" style="white-space: pre;" direction="ltr" dominant-baseline="alphabetic">      ORDER BY LastLogin DESC</text><text x="0" y="517.5" font-family="Comic Shanns, Segoe UI Emoji" font-size="20px" fill="#1e1e1e" text-anchor="start" style="white-space: pre;" direction="ltr" dominant-baseline="alphabetic">      LIMIT 1</text><text x="0" y="542.5" font-family="Comic Shanns, Segoe UI Emoji" font-size="20px" fill="#1e1e1e" text-anchor="start" style="white-space: pre;" direction="ltr" dominant-baseline="alphabetic"></text></g><g transform="translate(895 401) rotate(0 33.799957275390625 25)"><text x="0" y="17.619999999999997" font-family="Excalifont, Xiaolai, Segoe UI Emoji" font-size="20px" fill="#228be6" text-anchor="start" style="white-space: pre;" direction="ltr" dominant-baseline="alphabetic">VQL</text><text x="0" y="42.62" font-family="Excalifont, Xiaolai, Segoe UI Emoji" font-size="20px" fill="#228be6" text-anchor="start" style="white-space: pre;" direction="ltr" dominant-baseline="alphabetic">queries</text></g><g transform="translate(488 245) rotate(0 95.93990325927734 12.5)"><text x="0" y="17.619999999999997" font-family="Excalifont, Xiaolai, Segoe UI Emoji" font-size="20px" fill="#228be6" text-anchor="start" style="white-space: pre;" direction="ltr" dominant-baseline="alphabetic">The artifact's type</text></g><g stroke-linecap="round"><g transform="translate(863 424.274886556302) rotate(0 -80 -2.0983156220341925)"><path d="M0.65 -1.06 C-8.4 -1.58, -28.01 -2.47, -54.88 -2.8 C-81.75 -3.12, -143 -2.59, -160.56 -3 M-0.47 1 C-9.62 0.59, -28.9 -0.72, -55.76 -1.68 C-82.62 -2.63, -144.22 -4.21, -161.63 -4.72" stroke="#228be6" stroke-width="2" fill="none"></path></g><g transform="translate(863 424.274886556302) rotate(0 -80 -2.0983156220341925)"><path d="M-137.91 -12.62 C-145.61 -10.3, -151.13 -9.46, -161.63 -4.72 M-137.91 -12.62 C-147.91 -10.61, -156.72 -7.51, -161.63 -4.72" stroke="#228be6" stroke-width="2" fill="none"></path></g><g transform="translate(863 424.274886556302) rotate(0 -80 -2.0983156220341925)"><path d="M-138.38 4.48 C-146.01 2.49, -151.41 -0.96, -161.63 -4.72 M-138.38 4.48 C-148.15 -0.34, -156.77 -4.07, -161.63 -4.72" stroke="#228be6" stroke-width="2" fill="none"></path></g></g><mask></mask><g stroke-linecap="round"><g transform="translate(918 470) rotate(0 -51 70.5)"><path d="M0.09 1.17 C-4.47 21.17, -9.84 97.46, -26.86 120.92 C-43.88 144.38, -89.42 138.72, -102.02 141.91 M-1.33 0.73 C-5.55 20.86, -7.69 99.19, -24.6 122.41 C-41.51 145.63, -89.81 137.01, -102.79 140.05" stroke="#228be6" stroke-width="2" fill="none"></path></g><g transform="translate(918 470) rotate(0 -51 70.5)"><path d="M-79.66 130.59 C-85.51 132.38, -95.45 137.01, -102.79 140.05 M-79.66 130.59 C-88.28 133.99, -96.94 137.95, -102.79 140.05" stroke="#228be6" stroke-width="2" fill="none"></path></g><g transform="translate(918 470) rotate(0 -51 70.5)"><path d="M-78.99 147.67 C-85.19 143.66, -95.37 142.47, -102.79 140.05 M-78.99 147.67 C-87.8 144.65, -96.71 142.18, -102.79 140.05" stroke="#228be6" stroke-width="2" fill="none"></path></g></g><mask></mask><g stroke-linecap="round"><g transform="translate(470 256.8818370414805) rotate(0 -55 0)"><path d="M0.81 0.93 C-17.26 0.73, -90.89 0.01, -109.52 -0.12 M-0.23 0.37 C-18.32 0.88, -92.16 1.16, -110.22 1.36" stroke="#228be6" stroke-width="2" fill="none"></path></g><g transform="translate(470 256.8818370414805) rotate(0 -55 0)"><path d="M-86.79 -7.36 C-90.03 -4.6, -96.64 -5.22, -110.22 1.36 M-86.79 -7.36 C-93.85 -4.24, -101.07 -2.42, -110.22 1.36" stroke="#228be6" stroke-width="2" fill="none"></path></g><g transform="translate(470 256.8818370414805) rotate(0 -55 0)"><path d="M-86.67 9.74 C-90.08 8.95, -96.72 4.78, -110.22 1.36 M-86.67 9.74 C-93.66 7.54, -100.92 4.05, -110.22 1.36" stroke="#228be6" stroke-width="2" fill="none"></path></g></g><mask></mask><g stroke-linecap="round" transform="translate(10 10) rotate(0 562 365)"><path d="M0 0 C426.67 0, 853.34 0, 1124 0 M0 0 C418.46 0, 836.92 0, 1124 0 M1124 0 C1124 200.04, 1124 400.08, 1124 730 M1124 0 C1124 287.87, 1124 575.74, 1124 730 M1124 730 C821.23 730, 518.46 730, 0 730 M1124 730 C857.09 730, 590.17 730, 0 730 M0 730 C0 471.77, 0 213.54, 0 0 M0 730 C0 516.89, 0 303.79, 0 0" stroke="transparent" stroke-width="1" fill="none"></path></g></svg>